<svg height="512" viewBox="0 0 64 64" width="512" xmlns="http://www.w3.org/2000/svg"><g id="_20_Graduation" data-name="20 Graduation"><path d="m19 19.5v13.6523a1 1 0 0 0 .53.8828c.4583.2437 11.2913 5.9649 17.47 5.9649 5.01 0 13.0967-3.7676 16.34-5.3877a2.9826 2.9826 0 0 0 1.66-2.6841v-12.4282c0-.5522-36-.5522-36 0z" fill="#46464e"/><path d="m59.1387 14.8877-21.377-8.8135a1.9849 1.9849 0 0 0 -1.5234 0l-21.377 8.813a2.0167 2.0167 0 0 0 0 3.6978l21.377 8.813a2 2 0 0 0 1.5234 0l21.377-8.813a2.0167 2.0167 0 0 0 0-3.6973z" fill="#67676b"/><path d="m41.6641 47.2681.001-.001-.0225-.0176-.0166-.0146c-1.6387-1.3506-9.9941-8.2671-13.5488-11.8218-3.169-3.169-10.9961-12.1978-14.2422-15.9649a2.197 2.197 0 0 0 -1.7734-.8252c-1.6.0015-3.9326 1.3853-6.2373 3.6982-2.3154 2.3071-3.6992 4.64-3.7 6.24a2.2054 2.2054 0 0 0 .8086 1.7607c1.8857 1.6021 12.1641 10.4385 15.48 13.7549 3.4934 3.4932 10.2726 11.5858 12.2671 13.9832 0 0 11.3747-10.436 10.9841-10.7919z" fill="#eee"/><path d="m22.1015 43.3345-7.38-7.38-8.7385 8.7378a1 1 0 0 0 .435 1.669l4.1611 1.1763 1.1133 4.09a1.0159 1.0159 0 0 0 1.6719.4443z" fill="#ff3c38"/><path d="m41.8066 47.3926q-.07-.0643-.1426-.125h.001c-3.7981-3.1176-14.025 7.2324-10.792 11.0161 3.2461 3.7987 14.6421-7.1837 10.9336-10.8911z" fill="#bdbdbd"/><path d="m29.3008 34.688a.8579.8579 0 0 1 -.4795-1.1582 2.8659 2.8659 0 0 0 -3.791-3.7905.8534.8534 0 0 1 -1.1572-.48 2.8663 2.8663 0 0 0 -5.3613 0 .8575.8575 0 0 1 -1.1572.4795 2.866 2.866 0 0 0 -3.791 3.791.86.86 0 0 1 -.4795 1.1577 2.8651 2.8651 0 0 0 0 5.36.8583.8583 0 0 1 .4795 1.1592 2.8658 2.8658 0 0 0 3.791 3.79.86.86 0 0 1 1.1572.48 2.8454 2.8454 0 0 0 5.3613 0 .8578.8578 0 0 1 1.1572-.4795 2.866 2.866 0 0 0 3.791-3.7905.8592.8592 0 0 1 .4795-1.1582 2.8655 2.8655 0 0 0 0-5.3605z" fill="#ffcf4d"/><path d="m20.6875 42.3682a5 5 0 1 1 5-5 5.0059 5.0059 0 0 1 -5 5zm0-8a3 3 0 1 0 3 3 3.0033 3.0033 0 0 0 -3-3z" fill="#ff3c38"/><path d="m52 40.0273v-17.0273a.9991.9991 0 0 0 -.6064-.9189l-14-6a1 1 0 0 0 -.7871 1.8379l13.3935 5.7402v16.3681a2.2661 2.2661 0 0 0 -2 2.2437v3.458a2.2732 2.2732 0 0 0 2.2705 2.271h1.459a2.2732 2.2732 0 0 0 2.2705-2.271v-3.458a2.2661 2.2661 0 0 0 -2-2.2437z" fill="#ffcf4d"/><path d="m59.1367 14.89-17.9658-7.4113c-1.2529-.5169-2.7109-1.4775-4.0894-1.5087-1.2291-.0282-2.36.729-3.4564 1.1811-2.3235.9585-14.875 5.907-18.6741 7.7032a2.0236 2.0236 0 0 0 -.0868 3.7344c1.0535.514 4.1358 1.743 4.1358 1.743v5.0583c-1.2858-1.4654-5.2041-6.34-6.19-6.6545-1.2653-.4029-2.6768.3058-3.7313.9476a18.8889 18.8889 0 0 0 -4.41 3.8821 10.408 10.408 0 0 0 -2.4399 4.1748 2.7293 2.7293 0 0 0 1.1512 2.9628c1.061.9054 6.1074 5.2863 6.4938 5.625.3391.2973 1.1407.7722 1.3339 1.173a1.8531 1.8531 0 0 1 .451 1.5163s-5.4925 5.3756-5.7549 5.7795c-1.1466 1.7647 3.2127 2.3275 4.1975 2.6056.6313.1783.54.3484.7187 1.0057.2573.9479.4926 1.9051.7728 2.8466.7334 2.4648 2.6812-.0851 3.5881-.9935l3.8646-3.871a2.8311 2.8311 0 0 0 1.3842.8643c.4324.122.8821.0491 1.26.3245a6.4366 6.4366 0 0 1 .8562.9622q1.5374 1.7377 3.0468 3.5c1.6394 1.9082 3.2467 3.843 4.873 5.7621 2.9543 3.4869 7.9543-1.6466 9.8961-4.0593 1.2834-1.595 3.387-4.6768 1.3029-6.4765-3.21-2.6083-6.3628-5.2994-9.46-8.0406a16.9473 16.9473 0 0 0 8.6936.2375 51.67 51.67 0 0 0 9.1017-3.2768c0 .8039.0351 3.7861 0 3.8332-.0868.1165-.7727.2336-.9485.3452-1.5331.9728-1.1249 3.7414-1.0515 5.3049a2.3318 2.3318 0 0 0 2.3045 2.3293 4.1611 4.1611 0 0 0 2.8442-.4995c1.3007-1.044.9337-3.73.8513-5.2146a2.3625 2.3625 0 0 0 -.6642-1.6106c-.3186-.3172-1.1966-.482-1.3358-.7418-.106-.1979 0-4.6728 0-4.6728a8.1459 8.1459 0 0 0 2.0339-1.1271 3.044 3.044 0 0 0 .96-2.067c.2335-3.26.0065-11.7039.0065-11.7039s3.3181-1.3748 4.1252-1.77a2.0194 2.0194 0 0 0 .0111-3.7027zm-51.8984 8.8454c2.377-2.3853 4.1973-3.1333 4.81-3.1333a.3361.3361 0 0 1 .1768.0366s3.4961 4.062 6.7627 7.7646a3 3 0 0 0 -.4795.8511.8586.8586 0 0 1 -1.16.4819 2.8629 2.8629 0 0 0 -3.7858 3.7837.8573.8573 0 0 1 -.4785 1.168 2.958 2.958 0 0 0 -1.166.7729c-3.57-3.14-6.9844-6.0659-7.7686-6.7261-.2139-.3334.3897-2.31 3.0889-4.9994zm5.9346 25.7061-.8076-2.9736a1 1 0 0 0 -.6934-.7l-3.0684-.8667 4.7178-4.7178a.88.88 0 0 1 .247 1.024 2.8257 2.8257 0 0 0 .9628 3.5522 2.9477 2.9477 0 0 0 1.5625.5007c.5782.0141 1.0469-.3254 1.5938-.3409zm7.22-4.6362a2.906 2.906 0 0 0 -3.9072-1.6162.8412.8412 0 0 1 -1.1074-1.13 2.8618 2.8618 0 0 0 -.0763-2.5649 3.6806 3.6806 0 0 0 -1.701-1.4014.8505.8505 0 0 1 .1543-1.5205 2.8779 2.8779 0 0 0 1.6162-3.9058.8478.8478 0 0 1 1.1309-1.1182 2.8764 2.8764 0 0 0 3.8876-1.6167.8551.8551 0 0 1 1.5986-.0039 2.8463 2.8463 0 0 0 3.9063 1.6133.8555.8555 0 0 1 1.1178 1.139 2.8778 2.8778 0 0 0 1.6208 3.8915.8589.8589 0 0 1 .0013 1.5958 2.88 2.88 0 0 0 -1.6162 3.9063.8481.8481 0 0 1 -1.1386 1.1085 2.88 2.88 0 0 0 -3.8946 1.6279.8511.8511 0 0 1 -1.5928-.0048zm17.08 9.168c-.4732.473-4.531 4.0462-5.1925 2.7948-.3922-.7419.8165-2.4659 1.213-3.0181a16.6259 16.6259 0 0 1 2.5007-2.69c.453-.4016 4.1652-3.3517 4.4751-1.927.11.5066-.4125 1.3657-.6344 1.7772a13.4213 13.4213 0 0 1 -2.3621 3.0629zm.808-6.7733a14.8348 14.8348 0 0 0 -7.6342 7.703c-1.9477-2.3186-6.9672-8.0991-7.0841-8.23-.3406-.5013.3819-1.5776.8913-1.7163.5747-.1564 1.2008.3234 1.81.3237a2.8979 2.8979 0 0 0 2.8207-2.5541 6.4146 6.4146 0 0 0 -.3218-1.6924c-.0654-.48.4549-1.2622 1.0352-1.2164.422.0334 6.2361 5.3674 8.5948 7.3338-.0371.014-.075.0333-.1121.0487zm-1.2809-9.2a20.3789 20.3789 0 0 1 -5.8584-1.1665 3.0055 3.0055 0 0 0 -1.8369-2.146.8594.8594 0 0 1 -.4795-1.1626 2.869 2.869 0 0 0 -3.7939-3.7881.8615.8615 0 0 1 -1.16-.4839 2.8758 2.8758 0 0 0 -2.8713-1.8769v-6.2589l15.6191 6.4371a.9991.9991 0 0 0 .7617 0l11.0659-4.5607 1.5533.6657v10.3321c-3.5021 1.6107-9.3316 4.0087-13 4.0087zm15 7.729a.2709.2709 0 0 1 -.2705.271h-1.459a.2709.2709 0 0 1 -.2705-.271v-3.458a.2709.2709 0 0 1 .2705-.271h1.459a.2709.2709 0 0 1 .2705.271zm1-13.8042a.989.989 0 0 1 -.5479.8916c-.1318.0659-.3.1476-.4521.2226v-10.039c0-.5952-.471-.8884-.9656-1.0729l1.9656-.8101zm-4.5413-11.1015-11.0651-4.7422a1 1 0 0 0 -.7871 1.8379l9.2655 3.971-8.872 3.6583-16.6191-6.8525c-.0073-.0031-.0153-.0034-.0226-.0063l-4.7333-1.9507 21.375-8.8174 21.374 8.8174z"/><path d="m25.69 37.37a5.0009 5.0009 0 0 0 -.9014-2.8628 4.9041 4.9041 0 0 0 -4.3955-2.126 4.9976 4.9976 0 1 0 5.2969 4.9888zm-5 3c-3.8016 0-3.8992-5.7763-.1191-5.9976a.4867.4867 0 0 1 .06-.0029 3.0005 3.0005 0 1 1 .06 6z"/></g></svg>