<svg xmlns="http://www.w3.org/2000/svg" version="1.1" xmlns:xlink="http://www.w3.org/1999/xlink" xmlns:svgjs="http://svgjs.com/svgjs" width="512" height="512" x="0" y="0" viewBox="0 0 24 24" style="enable-background:new 0 0 512 512" xml:space="preserve" class=""><g transform="matrix(1.1900000000000008,0,0,1.1900000000000008,-2.2800000000000153,-2.2800000000000153)"><linearGradient id="a" x1="3.465" x2="20.535" y1="3.465" y2="20.535" gradientUnits="userSpaceOnUse"><stop offset="0" stop-color="#fee140"></stop><stop offset="1" stop-color="#fa709a"></stop></linearGradient><path fill="url(#a)" d="M17 2H7a5 5 0 0 0-5 5v10a5 5 0 0 0 5 5h10a5 5 0 0 0 5-5V7a5 5 0 0 0-5-5zm-7 17H6a1 1 0 0 1 0-2h4a1 1 0 0 1 0 2zm0-3H6a1 1 0 0 1 0-2h4a1 1 0 0 1 0 2zm10-8.97A4.925 4.925 0 0 0 17 6h-3a1.051 1.051 0 0 1-.71-.29L11.59 4H17a3.009 3.009 0 0 1 3 3z" data-original="url(#a)" class=""></path></g></svg>