<svg xmlns="http://www.w3.org/2000/svg" version="1.1" xmlns:xlink="http://www.w3.org/1999/xlink" xmlns:svgjs="http://svgjs.com/svgjs" width="512" height="512" x="0" y="0" viewBox="0 0 512 512" style="enable-background:new 0 0 512 512" xml:space="preserve"><g transform="matrix(1.25,0,0,1.25,-63.98287200927723,-64)"><linearGradient id="a" x1="403.91" x2="63.033" y1="453.41" y2="112.533" gradientUnits="userSpaceOnUse"><stop offset="0" stop-color="#cc793b"></stop><stop offset="1" stop-color="#f1a54d"></stop></linearGradient><linearGradient id="b" x1="489.036" x2="127.195" y1="537.484" y2="175.644" gradientUnits="userSpaceOnUse"><stop offset="0" stop-color="#f2994a"></stop><stop offset=".816" stop-color="#f2c04c"></stop><stop offset="1" stop-color="#f2c94c"></stop></linearGradient><path fill="url(#a)" d="M375.606 412H90.394A36.435 36.435 0 0 1 54 375.606V136.394A36.435 36.435 0 0 1 90.394 100H208.9a36.675 36.675 0 0 1 31.291 17.707L262.065 153h113.541A36.435 36.435 0 0 1 412 189.394v186.212A36.435 36.435 0 0 1 375.606 412z" data-original="url(#a)"></path><path fill="url(#b)" d="M374.854 411h-288.9c-9.724 0-18.293-3.967-23.509-10.883-5.07-6.721-6.521-15.671-3.983-24.555l41.327-144.62c4.8-16.79 22.57-29.942 40.459-29.942h288.9c9.724 0 18.292 3.967 23.509 10.883 5.07 6.721 6.521 15.671 3.982 24.555l-41.326 144.62C410.516 397.848 392.744 411 374.854 411z" data-original="url(#b)"></path></g></svg>