<svg xmlns="http://www.w3.org/2000/svg" version="1.1" xmlns:xlink="http://www.w3.org/1999/xlink" xmlns:svgjs="http://svgjs.com/svgjs" width="512" height="512" x="0" y="0" viewBox="0 0 32 32" style="enable-background:new 0 0 512 512" xml:space="preserve" class=""><g transform="matrix(1.1299999999999992,0,0,1.1299999999999992,-2.0799999999999876,-2.0799999999999876)"><linearGradient id="a" x1="4.003" x2="27.852" y1="3.218" y2="35.415" gradientUnits="userSpaceOnUse"><stop offset=".095" stop-color="#bcc6fa"></stop><stop offset=".256" stop-color="#a6b4f8"></stop><stop offset=".549" stop-color="#8598f6"></stop><stop offset=".792" stop-color="#7086f5"></stop><stop offset=".953" stop-color="#6980f4"></stop></linearGradient><linearGradient id="b" x1="4.003" x2="27.852" y1="3.218" y2="35.415" gradientUnits="userSpaceOnUse"><stop offset=".095" stop-color="#bcc6fa"></stop><stop offset=".265" stop-color="#b6c1fa"></stop><stop offset=".504" stop-color="#a3b1f8"></stop><stop offset=".781" stop-color="#8698f6"></stop><stop offset="1" stop-color="#6980f4"></stop></linearGradient><path fill="url(#a)" d="M24 30H8a2 2 0 0 1-2-2V4a2 2 0 0 1 2-2h9.172a2 2 0 0 1 1.414.586l6.828 6.828A2 2 0 0 1 26 10.828V28a2 2 0 0 1-2 2z" data-original="url(#a)"></path><path fill="#8a9cf6" d="m20.054 4.054-1.282-.951a1.994 1.994 0 0 0-.586-.4v5.814a2 2 0 0 0 2 2h5.783a1.994 1.994 0 0 0-.555-1.103z" data-original="#8a9cf6"></path><path fill="#5872f3" d="M25.814 10a1.993 1.993 0 0 0-.4-.586l-6.828-6.828a1.994 1.994 0 0 0-.586-.4V8a2 2 0 0 0 2 2z" data-original="#5872f3"></path><path fill="url(#b)" d="M24 30H8a2 2 0 0 1-2-2V4a2 2 0 0 1 2-2h9.172a2 2 0 0 1 1.414.586l6.828 6.828A2 2 0 0 1 26 10.828V28a2 2 0 0 1-2 2z" data-original="url(#b)" class=""></path><path fill="#8a9cf6" d="m20.054 4.054-1.282-.951a1.994 1.994 0 0 0-.586-.4v5.814a2 2 0 0 0 2 2h5.783a1.994 1.994 0 0 0-.555-1.103z" data-original="#8a9cf6"></path><path fill="#5872f3" d="M25.814 10a1.993 1.993 0 0 0-.4-.586l-6.828-6.828a1.994 1.994 0 0 0-.586-.4V8a2 2 0 0 0 2 2z" data-original="#5872f3"></path></g></svg>