<svg xmlns="http://www.w3.org/2000/svg" version="1.1" xmlns:xlink="http://www.w3.org/1999/xlink" xmlns:svgjs="http://svgjs.com/svgjs" width="512" height="512" x="0" y="0" viewBox="0 0 64 64" style="enable-background:new 0 0 512 512" xml:space="preserve" class=""><g transform="matrix(1.2999999999999998,0,0,1.2999999999999998,-9.599999999999994,-9.599999999999994)"><linearGradient id="a" x1="15.037" x2="48.963" y1="15.037" y2="48.963" gradientUnits="userSpaceOnUse"><stop offset="0" stop-color="#00d2ff"></stop><stop offset="1" stop-color="#3a7bd5"></stop></linearGradient><path fill="url(#a)" d="M32 8a24 24 0 1 0 24 24A24.027 24.027 0 0 0 32 8zm-.5 10a2.5 2.5 0 1 1-2.5 2.5 2.5 2.5 0 0 1 2.5-2.5zM34 46h-2a2 2 0 0 1-2-2V29a2 2 0 0 1 0-4h2a2 2 0 0 1 2 2v15a2 2 0 0 1 0 4z" data-original="url(#a)" class=""></path></g></svg>