<?xml version="1.0" encoding="UTF-8"?>
<svg xmlns="http://www.w3.org/2000/svg" xmlns:xlink="http://www.w3.org/1999/xlink" viewBox="0 0 24 24" width="512" height="512"><defs><linearGradient id="linear-gradient" x1="-2.46" y1="-2.46" x2="23.89" y2="23.89" gradientUnits="userSpaceOnUse"><stop offset="0" stop-color="#fff1bf"/><stop offset="0.06" stop-color="#feebbd"/><stop offset="0.14" stop-color="#fcd9b8"/><stop offset="0.23" stop-color="#f9bbaf"/><stop offset="0.33" stop-color="#f592a3"/><stop offset="0.44" stop-color="#ef5e94"/><stop offset="0.48" stop-color="#ec458d"/><stop offset="0.58" stop-color="#cd479b"/><stop offset="1" stop-color="#474ed7"/></linearGradient></defs><g id="Gradient"><path d="M8,10.75H4A2.75,2.75,0,0,1,1.25,8V4A2.75,2.75,0,0,1,4,1.25H8A2.75,2.75,0,0,1,10.75,4V8A2.75,2.75,0,0,1,8,10.75Zm-4-8A1.25,1.25,0,0,0,2.75,4V8A1.25,1.25,0,0,0,4,9.25H8A1.25,1.25,0,0,0,9.25,8V4A1.25,1.25,0,0,0,8,2.75Zm16,8H16A2.75,2.75,0,0,1,13.25,8V4A2.75,2.75,0,0,1,16,1.25h4A2.75,2.75,0,0,1,22.75,4V8A2.75,2.75,0,0,1,20,10.75Zm-4-8A1.25,1.25,0,0,0,14.75,4V8A1.25,1.25,0,0,0,16,9.25h4A1.25,1.25,0,0,0,21.25,8V4A1.25,1.25,0,0,0,20,2.75Zm4,20H16A2.75,2.75,0,0,1,13.25,20V16A2.75,2.75,0,0,1,16,13.25h4A2.75,2.75,0,0,1,22.75,16v4A2.75,2.75,0,0,1,20,22.75Zm-4-8A1.25,1.25,0,0,0,14.75,16v4A1.25,1.25,0,0,0,16,21.25h4A1.25,1.25,0,0,0,21.25,20V16A1.25,1.25,0,0,0,20,14.75Zm-8,8H4A2.75,2.75,0,0,1,1.25,20V16A2.75,2.75,0,0,1,4,13.25H8A2.75,2.75,0,0,1,10.75,16v4A2.75,2.75,0,0,1,8,22.75Zm-4-8A1.25,1.25,0,0,0,2.75,16v4A1.25,1.25,0,0,0,4,21.25H8A1.25,1.25,0,0,0,9.25,20V16A1.25,1.25,0,0,0,8,14.75Z" style="fill:url(#linear-gradient)"/></g></svg>
