<?xml version="1.0" encoding="UTF-8" standalone="no"?>
<!-- Created with Inkscape (http://www.inkscape.org/) -->

<svg
   version="1.1"
   id="svg6570"
   xml:space="preserve"
   width="682.66669"
   height="682.66669"
   viewBox="0 0 682.66669 682.66669"
   xmlns="http://www.w3.org/2000/svg"
   xmlns:svg="http://www.w3.org/2000/svg"><defs
     id="defs6574"><clipPath
       clipPathUnits="userSpaceOnUse"
       id="clipPath6584"><path
         d="M 0,512 H 512 V 0 H 0 Z"
         id="path6582" /></clipPath></defs><g
     id="g6576"
     transform="matrix(1.3333333,0,0,-1.3333333,0,682.66667)"><g
       id="g6578"><g
         id="g6580"
         clip-path="url(#clipPath6584)"><g
           id="g6586"
           transform="translate(155.1602,411.2305)"><path
             d="m 0,0 h -32.769 v 66.186 c 0,8.612 6.982,15.593 15.594,15.593 h 1.581 C -6.982,81.779 0,74.798 0,66.186 Z"
             style="fill:#aca5d6;fill-opacity:1;fill-rule:nonzero;stroke:none"
             id="path6588" /></g><g
           id="g6590"
           transform="translate(139.5664,493.0098)"><path
             d="m 0,0 h -1.581 c -3.097,0 -5.976,-0.914 -8.402,-2.47 4.321,-2.773 7.192,-7.608 7.192,-13.123 v -66.186 h 18.385 v 66.186 C 15.594,-6.981 8.612,0 0,0"
             style="fill:#978ecb;fill-opacity:1;fill-rule:nonzero;stroke:none"
             id="path6592" /></g><g
           id="g6594"
           transform="translate(291.0713,18.9902)"><path
             d="m 0,0 h -223.305 v 371.968 c 0,10.428 6.659,19.69 16.543,23.012 L 0,464.48 Z"
             style="fill:#c8effe;fill-opacity:1;fill-rule:nonzero;stroke:none"
             id="path6596" /></g><g
           id="g6598"
           transform="translate(269.5176,476.2256)"><path
             d="M 0,0 V -457.235 H 21.554 V 7.245 Z"
             style="fill:#99e6fc;fill-opacity:1;fill-rule:nonzero;stroke:none"
             id="path6600" /></g><g
           id="g6602"
           transform="translate(446.3701,254.3701)"><path
             d="M 0,0 V -235.38 H -155.3 V 16.63 H -16.63 C -7.44,16.63 0,9.19 0,0"
             style="fill:#f5fcff;fill-opacity:1;fill-rule:nonzero;stroke:none"
             id="path6604" /></g><g
           id="g6606"
           transform="translate(429.7388,271.0049)"><path
             d="m 0,0 h -21.554 c 9.188,0 16.637,-7.448 16.637,-16.636 V -252.015 H 16.636 V -16.636 C 16.636,-7.448 9.188,0 0,0"
             style="fill:#ddf4fe;fill-opacity:1;fill-rule:nonzero;stroke:none"
             id="path6608" /></g><g
           id="g6610"
           transform="translate(291.0713,18.9902)"><path
             d="m 0,0 h 202.152 c 6.228,0 11.277,5.048 11.277,11.276 V 46.658 H 0 Z"
             style="fill:#b6c4cf;fill-opacity:1;fill-rule:nonzero;stroke:none"
             id="path6612" /></g><g
           id="g6614"
           transform="translate(446.3701,122.6802)"><path
             d="m 0,0 v -57.03 h -48.8 v 15.37 c 0,23.06 18.7,41.75 41.76,41.75 h 4.23 C -1.87,0.09 -0.93,0.06 0,0"
             style="fill:#ddf4fe;fill-opacity:1;fill-rule:nonzero;stroke:none"
             id="path6616" /></g><g
           id="g6618"
           transform="translate(482.9463,65.6484)"><path
             d="m 0,0 v -35.382 c 0,-6.227 -5.049,-11.276 -11.276,-11.276 h 21.553 c 6.228,0 11.277,5.049 11.277,11.276 l 0,35.382 z"
             style="fill:#9facba;fill-opacity:1;fill-rule:nonzero;stroke:none"
             id="path6620" /></g><g
           id="g6622"
           transform="translate(458.5078,122.7744)"><path
             d="m 0,0 h 4.234 c 23.062,0 41.758,-18.696 41.758,-41.758 v -15.368 h -87.75 v 15.368 C -41.758,-18.696 -23.062,0 0,0"
             style="fill:#bbec6c;fill-opacity:1;fill-rule:nonzero;stroke:none"
             id="path6624" /></g><g
           id="g6626"
           transform="translate(462.7422,122.7744)"><path
             d="m 0,0 h -4.234 c -2.97,0 -5.866,-0.315 -8.66,-0.905 18.906,-3.988 33.098,-20.761 33.098,-40.853 v -15.368 h 21.554 v 15.368 C 41.758,-18.695 23.062,0 0,0"
             style="fill:#a2e62e;fill-opacity:1;fill-rule:nonzero;stroke:none"
             id="path6628" /></g><g
           id="g6630"
           transform="translate(18.7764,18.9902)"><path
             d="M 0,0 H 48.99 V 46.658 H -11.276 V 11.276 C -11.276,5.048 -6.228,0 0,0"
             style="fill:#b6c4cf;fill-opacity:1;fill-rule:nonzero;stroke:none"
             id="path6632" /></g><path
           d="M 46.213,18.99 H 67.767 V 65.648 H 46.213 Z"
           style="fill:#9facba;fill-opacity:1;fill-rule:nonzero;stroke:none"
           id="path6634" /><g
           id="g6636"
           transform="translate(61.8696,122.7744)"><path
             d="M 0,0 H 5.897 V -57.126 H -54.37 v 2.756 C -54.37,-24.342 -30.027,0 0,0"
             style="fill:#bbec6c;fill-opacity:1;fill-rule:nonzero;stroke:none"
             id="path6638" /></g><g
           id="g6640"
           transform="translate(61.8696,122.7744)"><path
             d="M 0,0 C -5.444,0 -10.697,-0.81 -15.657,-2.299 V -57.126 H 5.897 L 5.897,0 Z"
             style="fill:#a2e62e;fill-opacity:1;fill-rule:nonzero;stroke:none"
             id="path6642" /></g><g
           id="g6644"
           transform="translate(291.0713,483.4707)"><path
             d="m 0,0 70.248,-67.903 c 4.731,-4.574 7.404,-10.874 7.404,-17.455 V -212.466 H 0 Z"
             style="fill:#60b8fe;fill-opacity:1;fill-rule:nonzero;stroke:none"
             id="path6646" /></g><g
           id="g6648"
           transform="translate(361.3188,415.5679)"><path
             d="M 0,0 -70.248,67.903 V 47.068 L -21.554,0 c 4.733,-4.574 7.405,-10.874 7.405,-17.456 V -144.563 H 7.404 V -17.456 C 7.404,-10.874 4.732,-4.574 0,0"
             style="fill:#27a5fe;fill-opacity:1;fill-rule:nonzero;stroke:none"
             id="path6650" /></g><g
           id="g6652"
           transform="translate(211.2773,18.9902)"><path
             d="m 0,0 h -88.886 v 63.715 c 0,4.94 3.29,9.275 8.048,10.603 l 69.807,19.488 C -5.489,95.354 0,91.187 0,85.433 Z"
             style="fill:#60b8fe;fill-opacity:1;fill-rule:nonzero;stroke:none"
             id="path6654" /></g><g
           id="g6656"
           transform="translate(200.2461,112.7964)"><path
             d="m 0,0 -12.107,-3.38 c 0.987,-1.399 1.585,-3.108 1.585,-4.993 V -93.806 H 11.031 V -8.373 C 11.031,-2.619 5.542,1.547 0,0"
             style="fill:#27a5fe;fill-opacity:1;fill-rule:nonzero;stroke:none"
             id="path6658" /></g><g
           id="g6660"
           transform="translate(404.9683,209.1401)"><path
             d="m 0,0 h -73.551 c -2.843,0 -5.148,2.305 -5.148,5.148 v 18.053 c 0,2.844 2.305,5.149 5.148,5.149 H 0 c 2.844,0 5.149,-2.305 5.149,-5.149 V 5.148 C 5.149,2.305 2.844,0 0,0"
             style="fill:#c8effe;fill-opacity:1;fill-rule:nonzero;stroke:none"
             id="path6662" /></g><g
           id="g6664"
           transform="translate(404.9683,237.4902)"><path
             d="m 0,0 h -21.554 c 2.844,0 5.149,-2.306 5.149,-5.149 v -18.053 c 0,-2.843 -2.305,-5.148 -5.149,-5.148 H 0 c 2.844,0 5.149,2.305 5.149,5.148 V -5.149 C 5.149,-2.306 2.844,0 0,0"
             style="fill:#99e6fc;fill-opacity:1;fill-rule:nonzero;stroke:none"
             id="path6666" /></g><g
           id="g6668"
           transform="translate(404.9683,152.1099)"><path
             d="m 0,0 h -73.551 c -2.843,0 -5.148,2.305 -5.148,5.149 v 18.053 c 0,2.843 2.305,5.148 5.148,5.148 H 0 c 2.844,0 5.149,-2.305 5.149,-5.148 V 5.149 C 5.149,2.305 2.844,0 0,0"
             style="fill:#c8effe;fill-opacity:1;fill-rule:nonzero;stroke:none"
             id="path6670" /></g><g
           id="g6672"
           transform="translate(404.9683,180.46)"><path
             d="m 0,0 h -21.554 c 2.844,0 5.149,-2.305 5.149,-5.148 v -18.053 c 0,-2.844 -2.305,-5.149 -5.149,-5.149 H 0 c 2.844,0 5.149,2.305 5.149,5.149 V -5.148 C 5.149,-2.305 2.844,0 0,0"
             style="fill:#99e6fc;fill-opacity:1;fill-rule:nonzero;stroke:none"
             id="path6674" /></g><g
           id="g6676"
           transform="translate(355.7451,94.4971)"><path
             d="m 0,0 h -24.328 c -2.843,0 -5.148,2.305 -5.148,5.148 v 18.053 c 0,2.844 2.305,5.149 5.148,5.149 H 0 c 2.844,0 5.149,-2.305 5.149,-5.149 V 5.148 C 5.149,2.305 2.844,0 0,0"
             style="fill:#c8effe;fill-opacity:1;fill-rule:nonzero;stroke:none"
             id="path6678" /></g><g
           id="g6680"
           transform="translate(355.7451,122.8467)"><path
             d="m 0,0 h -21.553 c 2.843,0 5.148,-2.305 5.148,-5.148 v -18.053 c 0,-2.843 -2.305,-5.149 -5.148,-5.149 H 0 c 2.844,0 5.149,2.306 5.149,5.149 V -5.148 C 5.149,-2.305 2.844,0 0,0"
             style="fill:#99e6fc;fill-opacity:1;fill-rule:nonzero;stroke:none"
             id="path6682" /></g><g
           id="g6684"
           transform="translate(291.0713,18.9902)"><path
             d="m 0,0 h -223.305 v 371.968 c 0,10.428 6.659,19.69 16.543,23.012 L 0,464.48 Z"
             style="fill:none;stroke:#000000;stroke-width:15;stroke-linecap:round;stroke-linejoin:round;stroke-miterlimit:10;stroke-dasharray:none;stroke-opacity:1"
             id="path6686" /></g><g
           id="g6688"
           transform="translate(416.75,65.6499)"><path
             d="M 0,0 V -46.66 H -125.68 V 205.35 H 12.99 c 9.19,0 16.63,-7.44 16.63,-16.63 V 55.32"
             style="fill:none;stroke:#000000;stroke-width:15;stroke-linecap:round;stroke-linejoin:round;stroke-miterlimit:10;stroke-dasharray:none;stroke-opacity:1"
             id="path6690" /></g><g
           id="g6692"
           transform="translate(291.0713,18.9902)"><path
             d="m 0,0 h 202.152 c 6.228,0 11.277,5.048 11.277,11.276 V 46.658 H 0 Z"
             style="fill:none;stroke:#000000;stroke-width:15;stroke-linecap:round;stroke-linejoin:round;stroke-miterlimit:10;stroke-dasharray:none;stroke-opacity:1"
             id="path6694" /></g><g
           id="g6696"
           transform="translate(458.5078,122.7744)"><path
             d="m 0,0 h 4.234 c 23.062,0 41.758,-18.696 41.758,-41.758 v -15.368 h -87.75 v 15.368 C -41.758,-18.696 -23.062,0 0,0 Z"
             style="fill:none;stroke:#000000;stroke-width:15;stroke-linecap:round;stroke-linejoin:round;stroke-miterlimit:10;stroke-dasharray:none;stroke-opacity:1"
             id="path6698" /></g><g
           id="g6700"
           transform="translate(18.7764,18.9902)"><path
             d="M 0,0 H 48.99 V 46.658 H -11.276 V 11.276 C -11.276,5.048 -6.228,0 0,0 Z"
             style="fill:none;stroke:#000000;stroke-width:15;stroke-linecap:round;stroke-linejoin:round;stroke-miterlimit:10;stroke-dasharray:none;stroke-opacity:1"
             id="path6702" /></g><g
           id="g6704"
           transform="translate(61.8696,122.7744)"><path
             d="M 0,0 H 5.897 V -57.126 H -54.37 v 2.756 C -54.37,-24.342 -30.027,0 0,0 Z"
             style="fill:none;stroke:#000000;stroke-width:15;stroke-linecap:round;stroke-linejoin:round;stroke-miterlimit:10;stroke-dasharray:none;stroke-opacity:1"
             id="path6706" /></g><g
           id="g6708"
           transform="translate(368.7231,271.0049)"><path
             d="M 0,0 H -77.652 V 212.466 L -7.404,144.563 C -2.672,139.989 0,133.689 0,127.107 V 35.354"
             style="fill:none;stroke:#000000;stroke-width:15;stroke-linecap:round;stroke-linejoin:round;stroke-miterlimit:10;stroke-dasharray:none;stroke-opacity:1"
             id="path6710" /></g><g
           id="g6712"
           transform="translate(122.3901,426.77)"><path
             d="m 0,0 v 50.65 c 0,8.61 6.98,15.59 15.6,15.59 h 1.58 c 8.61,0 15.59,-6.98 15.59,-15.59 V 11.02"
             style="fill:none;stroke:#000000;stroke-width:15;stroke-linecap:round;stroke-linejoin:round;stroke-miterlimit:10;stroke-dasharray:none;stroke-opacity:1"
             id="path6714" /></g><g
           id="g6716"
           transform="translate(291.0698,426.7798)"><path
             d="M 0,0 -168.68,-56.7"
             style="fill:none;stroke:#000000;stroke-width:15;stroke-linecap:round;stroke-linejoin:round;stroke-miterlimit:10;stroke-dasharray:none;stroke-opacity:1"
             id="path6718" /></g><g
           id="g6720"
           transform="translate(291.0698,372.7998)"><path
             d="M 0,0 -168.68,-56.7"
             style="fill:none;stroke:#000000;stroke-width:15;stroke-linecap:round;stroke-linejoin:round;stroke-miterlimit:10;stroke-dasharray:none;stroke-opacity:1"
             id="path6722" /></g><g
           id="g6724"
           transform="translate(291.0698,318.8198)"><path
             d="M 0,0 -168.68,-56.7"
             style="fill:none;stroke:#000000;stroke-width:15;stroke-linecap:round;stroke-linejoin:round;stroke-miterlimit:10;stroke-dasharray:none;stroke-opacity:1"
             id="path6726" /></g><g
           id="g6728"
           transform="translate(291.0698,264.8398)"><path
             d="M 0,0 -168.68,-56.7"
             style="fill:none;stroke:#000000;stroke-width:15;stroke-linecap:round;stroke-linejoin:round;stroke-miterlimit:10;stroke-dasharray:none;stroke-opacity:1"
             id="path6730" /></g><g
           id="g6732"
           transform="translate(150.2363,163.5205)"><path
             d="M 0,0 -27.846,-9.36"
             style="fill:none;stroke:#000000;stroke-width:15;stroke-linecap:round;stroke-linejoin:round;stroke-miterlimit:10;stroke-dasharray:none;stroke-opacity:1"
             id="path6734" /></g><g
           id="g6736"
           transform="translate(291.0698,210.8599)"><path
             d="M 0,0 -107.247,-36.05"
             style="fill:none;stroke:#000000;stroke-width:15;stroke-linecap:round;stroke-linejoin:round;stroke-miterlimit:10;stroke-dasharray:none;stroke-opacity:1"
             id="path6738" /></g><g
           id="g6740"
           transform="translate(211.2773,18.9902)"><path
             d="m 0,0 h -88.886 v 63.715 c 0,4.94 3.29,9.275 8.048,10.603 l 69.807,19.488 C -5.489,95.354 0,91.187 0,85.433 Z"
             style="fill:none;stroke:#000000;stroke-width:15;stroke-linecap:round;stroke-linejoin:round;stroke-miterlimit:10;stroke-dasharray:none;stroke-opacity:1"
             id="path6742" /></g><g
           id="g6744"
           transform="translate(404.9683,209.1401)"><path
             d="m 0,0 h -73.551 c -2.843,0 -5.148,2.305 -5.148,5.148 v 18.053 c 0,2.844 2.305,5.149 5.148,5.149 H 0 c 2.844,0 5.149,-2.305 5.149,-5.149 V 5.148 C 5.149,2.305 2.844,0 0,0 Z"
             style="fill:none;stroke:#000000;stroke-width:15;stroke-linecap:round;stroke-linejoin:round;stroke-miterlimit:10;stroke-dasharray:none;stroke-opacity:1"
             id="path6746" /></g><g
           id="g6748"
           transform="translate(404.9683,152.1099)"><path
             d="m 0,0 h -73.551 c -2.843,0 -5.148,2.305 -5.148,5.149 v 18.053 c 0,2.843 2.305,5.148 5.148,5.148 H 0 c 2.844,0 5.149,-2.305 5.149,-5.148 V 5.149 C 5.149,2.305 2.844,0 0,0 Z"
             style="fill:none;stroke:#000000;stroke-width:15;stroke-linecap:round;stroke-linejoin:round;stroke-miterlimit:10;stroke-dasharray:none;stroke-opacity:1"
             id="path6750" /></g><g
           id="g6752"
           transform="translate(355.7451,94.4971)"><path
             d="m 0,0 h -24.328 c -2.843,0 -5.148,2.305 -5.148,5.148 v 18.053 c 0,2.844 2.305,5.149 5.148,5.149 H 0 c 2.844,0 5.149,-2.305 5.149,-5.149 V 5.148 C 5.149,2.305 2.844,0 0,0 Z"
             style="fill:none;stroke:#000000;stroke-width:15;stroke-linecap:round;stroke-linejoin:round;stroke-miterlimit:10;stroke-dasharray:none;stroke-opacity:1"
             id="path6754" /></g><g
           id="g6756"
           transform="translate(166.8345,103.4688)"><path
             d="M 0,0 V -84.479"
             style="fill:none;stroke:#000000;stroke-width:15;stroke-linecap:round;stroke-linejoin:round;stroke-miterlimit:10;stroke-dasharray:none;stroke-opacity:1"
             id="path6758" /></g></g></g></g></svg>
