<svg xmlns="http://www.w3.org/2000/svg" version="1.1" xmlns:xlink="http://www.w3.org/1999/xlink" xmlns:svgjs="http://svgjs.com/svgjs" width="512" height="512" x="0" y="0" viewBox="0 0 489.3 489.3" style="enable-background:new 0 0 512 512" xml:space="preserve"><g><path d="M79.55 229.675c-10.2 10.2-10.2 26.8 0 37.1 10.2 10.2 26.8 10.2 37.1 0 70.6-70.6 185.5-70.6 256.1 0 5.1 5.1 11.8 7.7 18.5 7.7s13.4-2.6 18.5-7.7c10.2-10.2 10.2-26.8 0-37.1-91-91.1-239.2-91.1-330.2 0z" fill="#ffffff" data-original="#000000"></path><path d="M150.35 300.475c-10.2 10.2-10.2 26.8 0 37.1 10.2 10.2 26.8 10.2 37.1 0 31.5-31.6 82.9-31.6 114.4 0 5.1 5.1 11.8 7.7 18.5 7.7s13.4-2.6 18.5-7.7c10.2-10.2 10.2-26.8 0-37-51.9-52.1-136.5-52.1-188.5-.1z" fill="#ffffff" data-original="#000000"></path><circle cx="244.65" cy="394.675" r="34.9" fill="#ffffff" data-original="#000000"></circle><path d="M481.65 157.675c-130.7-130.6-343.3-130.6-474 0-10.2 10.2-10.2 26.8 0 37.1 10.2 10.2 26.8 10.2 37.1 0 110.2-110.3 289.6-110.3 399.9 0 5.1 5.1 11.8 7.7 18.5 7.7s13.4-2.6 18.5-7.7c10.2-10.2 10.2-26.8 0-37.1z" fill="#ffffff" data-original="#000000"></path></g></svg>